<svg xmlns="http://www.w3.org/2000/svg" viewBox="0 0 200 200">
  <defs>
    <linearGradient id="grad" x1="0%" y1="0%" x2="100%" y2="100%">
      <stop offset="0%" stop-color="#f5b700" />
      <stop offset="100%" stop-color="#ff5c5c" />
    </linearGradient>
  </defs>
  <path fill="#111a28" stroke="url(#grad)" stroke-width="10" d="M100 16c37 0 70 16 93 42 0 52-21 92-55 116-17 12-37 20-38 20-1 0-21-7-38-20-34-24-55-64-55-116 23-26 56-42 93-42z" />
  <path fill="#f5b700" d="M100 50c-18 0-32 14-32 32s14 32 32 32 32-14 32-32-14-32-32-32zm0 12a20 20 0 1 1 0 40 20 20 0 0 1 0-40z" />
  <path fill="#fff" d="M96 90h8v34h-8zM96 132h8v12h-8z" />
</svg>
